<?xml version="1.0" encoding="UTF-8" ?>
<svg version="1.1" width="1080" height="1080" xmlns="http://www.w3.org/2000/svg" shape-rendering="crispEdges">
<rect x="378" y="216" width="27" height="27" fill="#2B2B2B" />
<rect x="405" y="216" width="27" height="27" fill="#2B2B2B" />
<rect x="351" y="243" width="27" height="27" fill="#2B2B2B" />
<rect x="378" y="243" width="27" height="27" fill="#2B2B2B" />
<rect x="405" y="243" width="27" height="27" fill="#4D4D4F" />
<rect x="432" y="243" width="27" height="27" fill="#2B2B2B" />
<rect x="756" y="243" width="27" height="27" fill="#2B2B2B" />
<rect x="783" y="243" width="27" height="27" fill="#2B2B2B" />
<rect x="810" y="243" width="27" height="27" fill="#2B2B2B" />
<rect x="837" y="243" width="27" height="27" fill="#2B2B2B" />
<rect x="324" y="270" width="27" height="27" fill="#2B2B2B" />
<rect x="351" y="270" width="27" height="27" fill="#5E5E57" />
<rect x="378" y="270" width="27" height="27" fill="#5E5E57" />
<rect x="405" y="270" width="27" height="27" fill="#4D4D4F" />
<rect x="432" y="270" width="27" height="27" fill="#4D4D4F" />
<rect x="459" y="270" width="27" height="27" fill="#2B2B2B" />
<rect x="486" y="270" width="27" height="27" fill="#2B2B2B" />
<rect x="540" y="270" width="27" height="27" fill="#2B2B2B" />
<rect x="567" y="270" width="27" height="27" fill="#2B2B2B" />
<rect x="648" y="270" width="27" height="27" fill="#2B2B2B" />
<rect x="675" y="270" width="27" height="27" fill="#2B2B2B" />
<rect x="702" y="270" width="27" height="27" fill="#2B2B2B" />
<rect x="729" y="270" width="27" height="27" fill="#2B2B2B" />
<rect x="756" y="270" width="27" height="27" fill="#767670" />
<rect x="783" y="270" width="27" height="27" fill="#767670" />
<rect x="810" y="270" width="27" height="27" fill="#767670" />
<rect x="837" y="270" width="27" height="27" fill="#767670" />
<rect x="864" y="270" width="27" height="27" fill="#2B2B2B" />
<rect x="324" y="297" width="27" height="27" fill="#2B2B2B" />
<rect x="351" y="297" width="27" height="27" fill="#5E5E57" />
<rect x="378" y="297" width="27" height="27" fill="#4D4D4F" />
<rect x="405" y="297" width="27" height="27" fill="#2B2B2B" />
<rect x="432" y="297" width="27" height="27" fill="#4D4D4F" />
<rect x="459" y="297" width="27" height="27" fill="#4D4D4F" />
<rect x="486" y="297" width="27" height="27" fill="#4D4D4F" />
<rect x="513" y="297" width="27" height="27" fill="#2B2B2B" />
<rect x="540" y="297" width="27" height="27" fill="#767670" />
<rect x="567" y="297" width="27" height="27" fill="#767670" />
<rect x="594" y="297" width="27" height="27" fill="#2B2B2B" />
<rect x="621" y="297" width="27" height="27" fill="#2B2B2B" />
<rect x="648" y="297" width="27" height="27" fill="#767670" />
<rect x="675" y="297" width="27" height="27" fill="#767670" />
<rect x="702" y="297" width="27" height="27" fill="#767670" />
<rect x="729" y="297" width="27" height="27" fill="#767670" />
<rect x="756" y="297" width="27" height="27" fill="#335596" />
<rect x="783" y="297" width="27" height="27" fill="#335596" />
<rect x="810" y="297" width="27" height="27" fill="#2B2B2B" />
<rect x="837" y="297" width="27" height="27" fill="#2B2B2B" />
<rect x="324" y="324" width="27" height="27" fill="#2B2B2B" />
<rect x="351" y="324" width="27" height="27" fill="#2B2B2B" />
<rect x="378" y="324" width="27" height="27" fill="#2B2B2B" />
<rect x="405" y="324" width="27" height="27" fill="#4D4D4F" />
<rect x="432" y="324" width="27" height="27" fill="#4D4D4F" />
<rect x="459" y="324" width="27" height="27" fill="#4D4D4F" />
<rect x="486" y="324" width="27" height="27" fill="#2B2B2B" />
<rect x="513" y="324" width="27" height="27" fill="#767670" />
<rect x="540" y="324" width="27" height="27" fill="#767670" />
<rect x="567" y="324" width="27" height="27" fill="#767670" />
<rect x="594" y="324" width="27" height="27" fill="#4D4D4F" />
<rect x="621" y="324" width="27" height="27" fill="#767670" />
<rect x="648" y="324" width="27" height="27" fill="#767670" />
<rect x="675" y="324" width="27" height="27" fill="#335596" />
<rect x="702" y="324" width="27" height="27" fill="#335596" />
<rect x="729" y="324" width="27" height="27" fill="#335596" />
<rect x="756" y="324" width="27" height="27" fill="#4480B9" />
<rect x="783" y="324" width="27" height="27" fill="#2B2B2B" />
<rect x="81" y="351" width="27" height="27" fill="#335596" />
<rect x="108" y="351" width="27" height="27" fill="#335596" />
<rect x="216" y="351" width="27" height="27" fill="#2B2B2B" />
<rect x="405" y="351" width="27" height="27" fill="#2B2B2B" />
<rect x="432" y="351" width="27" height="27" fill="#4D4D4F" />
<rect x="459" y="351" width="27" height="27" fill="#4D4D4F" />
<rect x="486" y="351" width="27" height="27" fill="#2B2B2B" />
<rect x="513" y="351" width="27" height="27" fill="#2B2B2B" />
<rect x="540" y="351" width="27" height="27" fill="#767670" />
<rect x="567" y="351" width="27" height="27" fill="#4D4D4F" />
<rect x="594" y="351" width="27" height="27" fill="#767670" />
<rect x="621" y="351" width="27" height="27" fill="#767670" />
<rect x="648" y="351" width="27" height="27" fill="#335596" />
<rect x="675" y="351" width="27" height="27" fill="#4480B9" />
<rect x="702" y="351" width="27" height="27" fill="#4480B9" />
<rect x="729" y="351" width="27" height="27" fill="#4480B9" />
<rect x="756" y="351" width="27" height="27" fill="#4480B9" />
<rect x="783" y="351" width="27" height="27" fill="#4480B9" />
<rect x="810" y="351" width="27" height="27" fill="#2B2B2B" />
<rect x="837" y="351" width="27" height="27" fill="#2B2B2B" />
<rect x="1026" y="351" width="27" height="27" fill="#335596" />
<rect x="54" y="378" width="27" height="27" fill="#335596" />
<rect x="81" y="378" width="27" height="27" fill="#33AAFF" />
<rect x="108" y="378" width="27" height="27" fill="#335596" />
<rect x="189" y="378" width="27" height="27" fill="#2B2B2B" />
<rect x="216" y="378" width="27" height="27" fill="#33AAFF" />
<rect x="243" y="378" width="27" height="27" fill="#2B2B2B" />
<rect x="351" y="378" width="27" height="27" fill="#2B2B2B" />
<rect x="378" y="378" width="27" height="27" fill="#2B2B2B" />
<rect x="432" y="378" width="27" height="27" fill="#2B2B2B" />
<rect x="459" y="378" width="27" height="27" fill="#4D4D4F" />
<rect x="486" y="378" width="27" height="27" fill="#4D4D4F" />
<rect x="513" y="378" width="27" height="27" fill="#4D4D4F" />
<rect x="540" y="378" width="27" height="27" fill="#2B2B2B" />
<rect x="567" y="378" width="27" height="27" fill="#4D4D4F" />
<rect x="594" y="378" width="27" height="27" fill="#767670" />
<rect x="621" y="378" width="27" height="27" fill="#4D4D4F" />
<rect x="648" y="378" width="27" height="27" fill="#4480B9" />
<rect x="675" y="378" width="27" height="27" fill="#4480B9" />
<rect x="702" y="378" width="27" height="27" fill="#4480B9" />
<rect x="729" y="378" width="27" height="27" fill="#4480B9" />
<rect x="756" y="378" width="27" height="27" fill="#4480B9" />
<rect x="783" y="378" width="27" height="27" fill="#4480B9" />
<rect x="810" y="378" width="27" height="27" fill="#4480B9" />
<rect x="837" y="378" width="27" height="27" fill="#4480B9" />
<rect x="864" y="378" width="27" height="27" fill="#2B2B2B" />
<rect x="999" y="378" width="27" height="27" fill="#335596" />
<rect x="1026" y="378" width="27" height="27" fill="#66CCFF" />
<rect x="1053" y="378" width="27" height="27" fill="#335596" />
<rect x="54" y="405" width="27" height="27" fill="#335596" />
<rect x="81" y="405" width="27" height="27" fill="#33AAFF" />
<rect x="108" y="405" width="27" height="27" fill="#33AAFF" />
<rect x="135" y="405" width="27" height="27" fill="#335596" />
<rect x="189" y="405" width="27" height="27" fill="#2B2B2B" />
<rect x="216" y="405" width="27" height="27" fill="#33AAFF" />
<rect x="243" y="405" width="27" height="27" fill="#2B2B2B" />
<rect x="297" y="405" width="27" height="27" fill="#2B2B2B" />
<rect x="324" y="405" width="27" height="27" fill="#2B2B2B" />
<rect x="351" y="405" width="27" height="27" fill="#33AAFF" />
<rect x="378" y="405" width="27" height="27" fill="#2B2B2B" />
<rect x="432" y="405" width="27" height="27" fill="#2B2B2B" />
<rect x="459" y="405" width="27" height="27" fill="#335596" />
<rect x="486" y="405" width="27" height="27" fill="#335596" />
<rect x="513" y="405" width="27" height="27" fill="#4D4D4F" />
<rect x="540" y="405" width="27" height="27" fill="#4D4D4F" />
<rect x="567" y="405" width="27" height="27" fill="#2B2B2B" />
<rect x="594" y="405" width="27" height="27" fill="#767670" />
<rect x="621" y="405" width="27" height="27" fill="#4D4D4F" />
<rect x="648" y="405" width="27" height="27" fill="#4480B9" />
<rect x="675" y="405" width="27" height="27" fill="#4480B9" />
<rect x="702" y="405" width="27" height="27" fill="#4480B9" />
<rect x="729" y="405" width="27" height="27" fill="#4480B9" />
<rect x="756" y="405" width="27" height="27" fill="#2B2B2B" />
<rect x="783" y="405" width="27" height="27" fill="#2B2B2B" />
<rect x="810" y="405" width="27" height="27" fill="#2B2B2B" />
<rect x="837" y="405" width="27" height="27" fill="#2B2B2B" />
<rect x="945" y="405" width="27" height="27" fill="#335596" />
<rect x="972" y="405" width="27" height="27" fill="#335596" />
<rect x="999" y="405" width="27" height="27" fill="#33AAFF" />
<rect x="1026" y="405" width="27" height="27" fill="#66CCFF" />
<rect x="1053" y="405" width="27" height="27" fill="#335596" />
<rect x="81" y="432" width="27" height="27" fill="#335596" />
<rect x="108" y="432" width="27" height="27" fill="#33AAFF" />
<rect x="135" y="432" width="27" height="27" fill="#335596" />
<rect x="162" y="432" width="27" height="27" fill="#2B2B2B" />
<rect x="189" y="432" width="27" height="27" fill="#5E5E57" />
<rect x="216" y="432" width="27" height="27" fill="#5E5E57" />
<rect x="243" y="432" width="27" height="27" fill="#2B2B2B" />
<rect x="297" y="432" width="27" height="27" fill="#2B2B2B" />
<rect x="324" y="432" width="27" height="27" fill="#33AAFF" />
<rect x="351" y="432" width="27" height="27" fill="#2B2B2B" />
<rect x="432" y="432" width="27" height="27" fill="#335596" />
<rect x="459" y="432" width="27" height="27" fill="#33AAFF" />
<rect x="486" y="432" width="27" height="27" fill="#335596" />
<rect x="513" y="432" width="27" height="27" fill="#4D4D4F" />
<rect x="540" y="432" width="27" height="27" fill="#2B2B2B" />
<rect x="567" y="432" width="27" height="27" fill="#5E5E57" />
<rect x="594" y="432" width="27" height="27" fill="#4D4D4F" />
<rect x="621" y="432" width="27" height="27" fill="#4480B9" />
<rect x="648" y="432" width="27" height="27" fill="#4480B9" />
<rect x="675" y="432" width="27" height="27" fill="#4480B9" />
<rect x="702" y="432" width="27" height="27" fill="#335596" />
<rect x="729" y="432" width="27" height="27" fill="#335596" />
<rect x="756" y="432" width="27" height="27" fill="#335596" />
<rect x="783" y="432" width="27" height="27" fill="#2B2B2B" />
<rect x="918" y="432" width="27" height="27" fill="#335596" />
<rect x="945" y="432" width="27" height="27" fill="#33AAFF" />
<rect x="972" y="432" width="27" height="27" fill="#A2E7FF" />
<rect x="999" y="432" width="27" height="27" fill="#66CCFF" />
<rect x="1026" y="432" width="27" height="27" fill="#335596" />
<rect x="54" y="459" width="27" height="27" fill="#335596" />
<rect x="81" y="459" width="27" height="27" fill="#A2E7FF" />
<rect x="108" y="459" width="27" height="27" fill="#33AAFF" />
<rect x="135" y="459" width="27" height="27" fill="#33AAFF" />
<rect x="162" y="459" width="27" height="27" fill="#2B2B2B" />
<rect x="189" y="459" width="27" height="27" fill="#5E5E57" />
<rect x="216" y="459" width="27" height="27" fill="#4D4D4F" />
<rect x="243" y="459" width="27" height="27" fill="#2B2B2B" />
<rect x="270" y="459" width="27" height="27" fill="#2B2B2B" />
<rect x="297" y="459" width="27" height="27" fill="#767670" />
<rect x="324" y="459" width="27" height="27" fill="#767670" />
<rect x="351" y="459" width="27" height="27" fill="#4D4D4F" />
<rect x="378" y="459" width="27" height="27" fill="#2B2B2B" />
<rect x="405" y="459" width="27" height="27" fill="#335596" />
<rect x="432" y="459" width="27" height="27" fill="#33AAFF" />
<rect x="459" y="459" width="27" height="27" fill="#335596" />
<rect x="486" y="459" width="27" height="27" fill="#4D4D4F" />
<rect x="513" y="459" width="27" height="27" fill="#4D4D4F" />
<rect x="540" y="459" width="27" height="27" fill="#2B2B2B" />
<rect x="567" y="459" width="27" height="27" fill="#5E5E57" />
<rect x="594" y="459" width="27" height="27" fill="#4D4D4F" />
<rect x="621" y="459" width="27" height="27" fill="#335596" />
<rect x="648" y="459" width="27" height="27" fill="#335596" />
<rect x="675" y="459" width="27" height="27" fill="#335596" />
<rect x="702" y="459" width="27" height="27" fill="#335596" />
<rect x="729" y="459" width="27" height="27" fill="#335596" />
<rect x="756" y="459" width="27" height="27" fill="#335596" />
<rect x="783" y="459" width="27" height="27" fill="#335596" />
<rect x="810" y="459" width="27" height="27" fill="#2B2B2B" />
<rect x="918" y="459" width="27" height="27" fill="#335596" />
<rect x="945" y="459" width="27" height="27" fill="#A2E7FF" />
<rect x="972" y="459" width="27" height="27" fill="#33AAFF" />
<rect x="999" y="459" width="27" height="27" fill="#33AAFF" />
<rect x="1026" y="459" width="27" height="27" fill="#335596" />
<rect x="54" y="486" width="27" height="27" fill="#335596" />
<rect x="81" y="486" width="27" height="27" fill="#33AAFF" />
<rect x="108" y="486" width="27" height="27" fill="#A2E7FF" />
<rect x="135" y="486" width="27" height="27" fill="#2B2B2B" />
<rect x="162" y="486" width="27" height="27" fill="#4D4D4F" />
<rect x="189" y="486" width="27" height="27" fill="#4D4D4F" />
<rect x="216" y="486" width="27" height="27" fill="#767670" />
<rect x="243" y="486" width="27" height="27" fill="#4D4D4F" />
<rect x="270" y="486" width="27" height="27" fill="#767670" />
<rect x="297" y="486" width="27" height="27" fill="#767670" />
<rect x="324" y="486" width="27" height="27" fill="#4D4D4F" />
<rect x="351" y="486" width="27" height="27" fill="#767670" />
<rect x="378" y="486" width="27" height="27" fill="#2B2B2B" />
<rect x="405" y="486" width="27" height="27" fill="#335596" />
<rect x="432" y="486" width="27" height="27" fill="#33AAFF" />
<rect x="459" y="486" width="27" height="27" fill="#335596" />
<rect x="486" y="486" width="27" height="27" fill="#4D4D4F" />
<rect x="513" y="486" width="27" height="27" fill="#2B2B2B" />
<rect x="540" y="486" width="27" height="27" fill="#5E5E57" />
<rect x="567" y="486" width="27" height="27" fill="#5E5E57" />
<rect x="594" y="486" width="27" height="27" fill="#4D4D4F" />
<rect x="621" y="486" width="27" height="27" fill="#335596" />
<rect x="648" y="486" width="27" height="27" fill="#335596" />
<rect x="675" y="486" width="27" height="27" fill="#335596" />
<rect x="702" y="486" width="27" height="27" fill="#2B2B2B" />
<rect x="729" y="486" width="27" height="27" fill="#2B2B2B" />
<rect x="756" y="486" width="27" height="27" fill="#335596" />
<rect x="783" y="486" width="27" height="27" fill="#335596" />
<rect x="810" y="486" width="27" height="27" fill="#335596" />
<rect x="837" y="486" width="27" height="27" fill="#2B2B2B" />
<rect x="945" y="486" width="27" height="27" fill="#335596" />
<rect x="972" y="486" width="27" height="27" fill="#66CCFF" />
<rect x="999" y="486" width="27" height="27" fill="#335596" />
<rect x="81" y="513" width="27" height="27" fill="#335596" />
<rect x="108" y="513" width="27" height="27" fill="#A2E7FF" />
<rect x="135" y="513" width="27" height="27" fill="#2B2B2B" />
<rect x="162" y="513" width="27" height="27" fill="#767670" />
<rect x="189" y="513" width="27" height="27" fill="#767670" />
<rect x="216" y="513" width="27" height="27" fill="#767670" />
<rect x="243" y="513" width="27" height="27" fill="#767670" />
<rect x="270" y="513" width="27" height="27" fill="#767670" />
<rect x="297" y="513" width="27" height="27" fill="#767670" />
<rect x="324" y="513" width="27" height="27" fill="#4D4D4F" />
<rect x="351" y="513" width="27" height="27" fill="#2B2B2B" />
<rect x="405" y="513" width="27" height="27" fill="#335596" />
<rect x="432" y="513" width="27" height="27" fill="#33AAFF" />
<rect x="459" y="513" width="27" height="27" fill="#33AAFF" />
<rect x="486" y="513" width="27" height="27" fill="#335596" />
<rect x="513" y="513" width="27" height="27" fill="#5E5E57" />
<rect x="540" y="513" width="27" height="27" fill="#5E5E57" />
<rect x="567" y="513" width="27" height="27" fill="#4D4D4F" />
<rect x="594" y="513" width="27" height="27" fill="#335596" />
<rect x="621" y="513" width="27" height="27" fill="#335596" />
<rect x="648" y="513" width="27" height="27" fill="#335596" />
<rect x="675" y="513" width="27" height="27" fill="#335596" />
<rect x="702" y="513" width="27" height="27" fill="#2B2B2B" />
<rect x="756" y="513" width="27" height="27" fill="#2B2B2B" />
<rect x="783" y="513" width="27" height="27" fill="#2B2B2B" />
<rect x="810" y="513" width="27" height="27" fill="#2B2B2B" />
<rect x="837" y="513" width="27" height="27" fill="#2B2B2B" />
<rect x="945" y="513" width="27" height="27" fill="#335596" />
<rect x="972" y="513" width="27" height="27" fill="#A2E7FF" />
<rect x="999" y="513" width="27" height="27" fill="#335596" />
<rect x="108" y="540" width="27" height="27" fill="#2B2B2B" />
<rect x="135" y="540" width="27" height="27" fill="#767670" />
<rect x="162" y="540" width="27" height="27" fill="#767670" />
<rect x="189" y="540" width="27" height="27" fill="#767670" />
<rect x="216" y="540" width="27" height="27" fill="#767670" />
<rect x="243" y="540" width="27" height="27" fill="#767670" />
<rect x="270" y="540" width="27" height="27" fill="#5E5E57" />
<rect x="297" y="540" width="27" height="27" fill="#767670" />
<rect x="324" y="540" width="27" height="27" fill="#5E5E57" />
<rect x="351" y="540" width="27" height="27" fill="#2B2B2B" />
<rect x="378" y="540" width="27" height="27" fill="#335596" />
<rect x="405" y="540" width="27" height="27" fill="#33AAFF" />
<rect x="432" y="540" width="27" height="27" fill="#33AAFF" />
<rect x="459" y="540" width="27" height="27" fill="#33AAFF" />
<rect x="486" y="540" width="27" height="27" fill="#335596" />
<rect x="513" y="540" width="27" height="27" fill="#5E5E57" />
<rect x="540" y="540" width="27" height="27" fill="#4D4D4F" />
<rect x="567" y="540" width="27" height="27" fill="#33AAFF" />
<rect x="594" y="540" width="27" height="27" fill="#4D4D4F" />
<rect x="621" y="540" width="27" height="27" fill="#335596" />
<rect x="648" y="540" width="27" height="27" fill="#335596" />
<rect x="675" y="540" width="27" height="27" fill="#335596" />
<rect x="702" y="540" width="27" height="27" fill="#335596" />
<rect x="729" y="540" width="27" height="27" fill="#2B2B2B" />
<rect x="918" y="540" width="27" height="27" fill="#335596" />
<rect x="945" y="540" width="27" height="27" fill="#66CCFF" />
<rect x="972" y="540" width="27" height="27" fill="#A2E7FF" />
<rect x="999" y="540" width="27" height="27" fill="#33AAFF" />
<rect x="1026" y="540" width="27" height="27" fill="#335596" />
<rect x="54" y="567" width="27" height="27" fill="#335596" />
<rect x="81" y="567" width="27" height="27" fill="#335596" />
<rect x="108" y="567" width="27" height="27" fill="#2B2B2B" />
<rect x="135" y="567" width="27" height="27" fill="#767670" />
<rect x="162" y="567" width="27" height="27" fill="#767670" />
<rect x="189" y="567" width="27" height="27" fill="#767670" />
<rect x="216" y="567" width="27" height="27" fill="#767670" />
<rect x="243" y="567" width="27" height="27" fill="#5E5E57" />
<rect x="270" y="567" width="27" height="27" fill="#FFFFFF" />
<rect x="297" y="567" width="27" height="27" fill="#5E5E57" />
<rect x="324" y="567" width="27" height="27" fill="#5E5E57" />
<rect x="351" y="567" width="27" height="27" fill="#5E5E57" />
<rect x="378" y="567" width="27" height="27" fill="#335596" />
<rect x="405" y="567" width="27" height="27" fill="#A2E7FF" />
<rect x="432" y="567" width="27" height="27" fill="#33AAFF" />
<rect x="459" y="567" width="27" height="27" fill="#335596" />
<rect x="486" y="567" width="27" height="27" fill="#767670" />
<rect x="513" y="567" width="27" height="27" fill="#767670" />
<rect x="540" y="567" width="27" height="27" fill="#4D4D4F" />
<rect x="567" y="567" width="27" height="27" fill="#767670" />
<rect x="594" y="567" width="27" height="27" fill="#4D4D4F" />
<rect x="621" y="567" width="27" height="27" fill="#4D4D4F" />
<rect x="648" y="567" width="27" height="27" fill="#4D4D4F" />
<rect x="675" y="567" width="27" height="27" fill="#335596" />
<rect x="702" y="567" width="27" height="27" fill="#335596" />
<rect x="729" y="567" width="27" height="27" fill="#2B2B2B" />
<rect x="918" y="567" width="27" height="27" fill="#335596" />
<rect x="945" y="567" width="27" height="27" fill="#A2E7FF" />
<rect x="972" y="567" width="27" height="27" fill="#A2E7FF" />
<rect x="999" y="567" width="27" height="27" fill="#66CCFF" />
<rect x="1026" y="567" width="27" height="27" fill="#335596" />
<rect x="27" y="594" width="27" height="27" fill="#335596" />
<rect x="54" y="594" width="27" height="27" fill="#33AAFF" />
<rect x="81" y="594" width="27" height="27" fill="#33AAFF" />
<rect x="108" y="594" width="27" height="27" fill="#2B2B2B" />
<rect x="135" y="594" width="27" height="27" fill="#5E5E57" />
<rect x="162" y="594" width="27" height="27" fill="#767670" />
<rect x="189" y="594" width="27" height="27" fill="#4D4D4F" />
<rect x="216" y="594" width="27" height="27" fill="#767670" />
<rect x="243" y="594" width="27" height="27" fill="#C44433" />
<rect x="270" y="594" width="27" height="27" fill="#FFFFFF" />
<rect x="297" y="594" width="27" height="27" fill="#5E5E57" />
<rect x="324" y="594" width="27" height="27" fill="#335596" />
<rect x="351" y="594" width="27" height="27" fill="#335596" />
<rect x="378" y="594" width="27" height="27" fill="#33AAFF" />
<rect x="405" y="594" width="27" height="27" fill="#A2E7FF" />
<rect x="432" y="594" width="27" height="27" fill="#335596" />
<rect x="459" y="594" width="27" height="27" fill="#4D4D4F" />
<rect x="486" y="594" width="27" height="27" fill="#4D4D4F" />
<rect x="513" y="594" width="27" height="27" fill="#767670" />
<rect x="540" y="594" width="27" height="27" fill="#767670" />
<rect x="567" y="594" width="27" height="27" fill="#767670" />
<rect x="594" y="594" width="27" height="27" fill="#767670" />
<rect x="621" y="594" width="27" height="27" fill="#4D4D4F" />
<rect x="648" y="594" width="27" height="27" fill="#5E5E57" />
<rect x="675" y="594" width="27" height="27" fill="#4D4D4F" />
<rect x="702" y="594" width="27" height="27" fill="#335596" />
<rect x="729" y="594" width="27" height="27" fill="#2B2B2B" />
<rect x="945" y="594" width="27" height="27" fill="#335596" />
<rect x="972" y="594" width="27" height="27" fill="#66CCFF" />
<rect x="999" y="594" width="27" height="27" fill="#335596" />
<rect x="0" y="621" width="27" height="27" fill="#335596" />
<rect x="27" y="621" width="27" height="27" fill="#A2E7FF" />
<rect x="54" y="621" width="27" height="27" fill="#A2E7FF" />
<rect x="81" y="621" width="27" height="27" fill="#2B2B2B" />
<rect x="108" y="621" width="27" height="27" fill="#767670" />
<rect x="135" y="621" width="27" height="27" fill="#767670" />
<rect x="162" y="621" width="27" height="27" fill="#5E5E57" />
<rect x="189" y="621" width="27" height="27" fill="#5E5E57" />
<rect x="216" y="621" width="27" height="27" fill="#2B2B2B" />
<rect x="243" y="621" width="27" height="27" fill="#C44433" />
<rect x="270" y="621" width="27" height="27" fill="#5E5E57" />
<rect x="297" y="621" width="27" height="27" fill="#5E5E57" />
<rect x="324" y="621" width="27" height="27" fill="#33AAFF" />
<rect x="351" y="621" width="27" height="27" fill="#A2E7FF" />
<rect x="378" y="621" width="27" height="27" fill="#A2E7FF" />
<rect x="405" y="621" width="27" height="27" fill="#33AAFF" />
<rect x="432" y="621" width="27" height="27" fill="#335596" />
<rect x="459" y="621" width="27" height="27" fill="#4D4D4F" />
<rect x="486" y="621" width="27" height="27" fill="#33AAFF" />
<rect x="513" y="621" width="27" height="27" fill="#767670" />
<rect x="540" y="621" width="27" height="27" fill="#4D4D4F" />
<rect x="567" y="621" width="27" height="27" fill="#767670" />
<rect x="594" y="621" width="27" height="27" fill="#767670" />
<rect x="621" y="621" width="27" height="27" fill="#4D4D4F" />
<rect x="648" y="621" width="27" height="27" fill="#5E5E57" />
<rect x="675" y="621" width="27" height="27" fill="#5E5E57" />
<rect x="702" y="621" width="27" height="27" fill="#2B2B2B" />
<rect x="918" y="621" width="27" height="27" fill="#2B2B2B" />
<rect x="945" y="621" width="27" height="27" fill="#767670" />
<rect x="972" y="621" width="27" height="27" fill="#2B2B2B" />
<rect x="0" y="648" width="27" height="27" fill="#335596" />
<rect x="27" y="648" width="27" height="27" fill="#33AAFF" />
<rect x="54" y="648" width="27" height="27" fill="#2B2B2B" />
<rect x="81" y="648" width="27" height="27" fill="#767670" />
<rect x="108" y="648" width="27" height="27" fill="#767670" />
<rect x="135" y="648" width="27" height="27" fill="#767670" />
<rect x="162" y="648" width="27" height="27" fill="#767670" />
<rect x="189" y="648" width="27" height="27" fill="#767670" />
<rect x="216" y="648" width="27" height="27" fill="#767670" />
<rect x="243" y="648" width="27" height="27" fill="#5E5E57" />
<rect x="270" y="648" width="27" height="27" fill="#5E5E57" />
<rect x="297" y="648" width="27" height="27" fill="#33AAFF" />
<rect x="324" y="648" width="27" height="27" fill="#A2E7FF" />
<rect x="351" y="648" width="27" height="27" fill="#33AAFF" />
<rect x="378" y="648" width="27" height="27" fill="#335596" />
<rect x="405" y="648" width="27" height="27" fill="#335596" />
<rect x="432" y="648" width="27" height="27" fill="#335596" />
<rect x="459" y="648" width="27" height="27" fill="#98DCFF" />
<rect x="486" y="648" width="27" height="27" fill="#4D4D4F" />
<rect x="513" y="648" width="27" height="27" fill="#4D4D4F" />
<rect x="540" y="648" width="27" height="27" fill="#98DCFF" />
<rect x="567" y="648" width="27" height="27" fill="#4D4D4F" />
<rect x="594" y="648" width="27" height="27" fill="#767670" />
<rect x="621" y="648" width="27" height="27" fill="#767670" />
<rect x="648" y="648" width="27" height="27" fill="#4D4D4F" />
<rect x="675" y="648" width="27" height="27" fill="#5E5E57" />
<rect x="702" y="648" width="27" height="27" fill="#5E5E57" />
<rect x="729" y="648" width="27" height="27" fill="#2B2B2B" />
<rect x="756" y="648" width="27" height="27" fill="#2B2B2B" />
<rect x="864" y="648" width="27" height="27" fill="#2B2B2B" />
<rect x="891" y="648" width="27" height="27" fill="#2B2B2B" />
<rect x="918" y="648" width="27" height="27" fill="#767670" />
<rect x="945" y="648" width="27" height="27" fill="#5E5E57" />
<rect x="972" y="648" width="27" height="27" fill="#2B2B2B" />
<rect x="27" y="675" width="27" height="27" fill="#335596" />
<rect x="54" y="675" width="27" height="27" fill="#2B2B2B" />
<rect x="81" y="675" width="27" height="27" fill="#767670" />
<rect x="108" y="675" width="27" height="27" fill="#767670" />
<rect x="135" y="675" width="27" height="27" fill="#4D4D4F" />
<rect x="162" y="675" width="27" height="27" fill="#4D4D4F" />
<rect x="189" y="675" width="27" height="27" fill="#767670" />
<rect x="216" y="675" width="27" height="27" fill="#5E5E57" />
<rect x="243" y="675" width="27" height="27" fill="#4D4D4F" />
<rect x="270" y="675" width="27" height="27" fill="#4D4D4F" />
<rect x="297" y="675" width="27" height="27" fill="#A2E7FF" />
<rect x="324" y="675" width="27" height="27" fill="#A2E7FF" />
<rect x="351" y="675" width="27" height="27" fill="#335596" />
<rect x="378" y="675" width="27" height="27" fill="#FFFFFF" />
<rect x="405" y="675" width="27" height="27" fill="#2B2B2B" />
<rect x="432" y="675" width="27" height="27" fill="#6EB3DC" />
<rect x="459" y="675" width="27" height="27" fill="#98DCFF" />
<rect x="486" y="675" width="27" height="27" fill="#98DCFF" />
<rect x="513" y="675" width="27" height="27" fill="#98DCFF" />
<rect x="540" y="675" width="27" height="27" fill="#4D4D4F" />
<rect x="567" y="675" width="27" height="27" fill="#4D4D4F" />
<rect x="594" y="675" width="27" height="27" fill="#767670" />
<rect x="621" y="675" width="27" height="27" fill="#4D4D4F" />
<rect x="648" y="675" width="27" height="27" fill="#5E5E57" />
<rect x="675" y="675" width="27" height="27" fill="#5E5E57" />
<rect x="702" y="675" width="27" height="27" fill="#5E5E57" />
<rect x="729" y="675" width="27" height="27" fill="#4D4D4F" />
<rect x="756" y="675" width="27" height="27" fill="#5E5E57" />
<rect x="783" y="675" width="27" height="27" fill="#2B2B2B" />
<rect x="810" y="675" width="27" height="27" fill="#2B2B2B" />
<rect x="837" y="675" width="27" height="27" fill="#2B2B2B" />
<rect x="864" y="675" width="27" height="27" fill="#767670" />
<rect x="891" y="675" width="27" height="27" fill="#767670" />
<rect x="918" y="675" width="27" height="27" fill="#767670" />
<rect x="945" y="675" width="27" height="27" fill="#2B2B2B" />
<rect x="81" y="702" width="27" height="27" fill="#2B2B2B" />
<rect x="108" y="702" width="27" height="27" fill="#5E5E57" />
<rect x="135" y="702" width="27" height="27" fill="#767670" />
<rect x="162" y="702" width="27" height="27" fill="#5E5E57" />
<rect x="189" y="702" width="27" height="27" fill="#4D4D4F" />
<rect x="216" y="702" width="27" height="27" fill="#2B2B2B" />
<rect x="243" y="702" width="27" height="27" fill="#A2E7FF" />
<rect x="270" y="702" width="27" height="27" fill="#A2E7FF" />
<rect x="297" y="702" width="27" height="27" fill="#33AAFF" />
<rect x="324" y="702" width="27" height="27" fill="#33AAFF" />
<rect x="351" y="702" width="27" height="27" fill="#335596" />
<rect x="378" y="702" width="27" height="27" fill="#2B2B2B" />
<rect x="405" y="702" width="27" height="27" fill="#5E5E57" />
<rect x="432" y="702" width="27" height="27" fill="#4D4D4F" />
<rect x="459" y="702" width="27" height="27" fill="#6EB3DC" />
<rect x="486" y="702" width="27" height="27" fill="#98DCFF" />
<rect x="513" y="702" width="27" height="27" fill="#4D4D4F" />
<rect x="540" y="702" width="27" height="27" fill="#4D4D4F" />
<rect x="567" y="702" width="27" height="27" fill="#767670" />
<rect x="594" y="702" width="27" height="27" fill="#767670" />
<rect x="621" y="702" width="27" height="27" fill="#4D4D4F" />
<rect x="648" y="702" width="27" height="27" fill="#767670" />
<rect x="675" y="702" width="27" height="27" fill="#5E5E57" />
<rect x="702" y="702" width="27" height="27" fill="#5E5E57" />
<rect x="729" y="702" width="27" height="27" fill="#5E5E57" />
<rect x="756" y="702" width="27" height="27" fill="#4D4D4F" />
<rect x="783" y="702" width="27" height="27" fill="#5E5E57" />
<rect x="810" y="702" width="27" height="27" fill="#5E5E57" />
<rect x="837" y="702" width="27" height="27" fill="#3C3C34" />
<rect x="864" y="702" width="27" height="27" fill="#767670" />
<rect x="891" y="702" width="27" height="27" fill="#767670" />
<rect x="918" y="702" width="27" height="27" fill="#2B2B2B" />
<rect x="108" y="729" width="27" height="27" fill="#2B2B2B" />
<rect x="135" y="729" width="27" height="27" fill="#2B2B2B" />
<rect x="162" y="729" width="27" height="27" fill="#FFFFFF" />
<rect x="189" y="729" width="27" height="27" fill="#2B2B2B" />
<rect x="216" y="729" width="27" height="27" fill="#335596" />
<rect x="243" y="729" width="27" height="27" fill="#33AAFF" />
<rect x="270" y="729" width="27" height="27" fill="#33AAFF" />
<rect x="297" y="729" width="27" height="27" fill="#335596" />
<rect x="324" y="729" width="27" height="27" fill="#335596" />
<rect x="378" y="729" width="27" height="27" fill="#2B2B2B" />
<rect x="405" y="729" width="27" height="27" fill="#5E5E57" />
<rect x="432" y="729" width="27" height="27" fill="#5E5E57" />
<rect x="459" y="729" width="27" height="27" fill="#5E5E57" />
<rect x="486" y="729" width="27" height="27" fill="#4D4D4F" />
<rect x="513" y="729" width="27" height="27" fill="#FFFFFF" />
<rect x="540" y="729" width="27" height="27" fill="#767670" />
<rect x="567" y="729" width="27" height="27" fill="#767670" />
<rect x="594" y="729" width="27" height="27" fill="#4D4D4F" />
<rect x="621" y="729" width="27" height="27" fill="#767670" />
<rect x="648" y="729" width="27" height="27" fill="#767670" />
<rect x="675" y="729" width="27" height="27" fill="#767670" />
<rect x="702" y="729" width="27" height="27" fill="#5E5E57" />
<rect x="729" y="729" width="27" height="27" fill="#5E5E57" />
<rect x="756" y="729" width="27" height="27" fill="#4D4D4F" />
<rect x="783" y="729" width="27" height="27" fill="#5E5E57" />
<rect x="810" y="729" width="27" height="27" fill="#5E5E57" />
<rect x="837" y="729" width="27" height="27" fill="#5E5E57" />
<rect x="864" y="729" width="27" height="27" fill="#2B2B2B" />
<rect x="891" y="729" width="27" height="27" fill="#2B2B2B" />
<rect x="162" y="756" width="27" height="27" fill="#2B2B2B" />
<rect x="243" y="756" width="27" height="27" fill="#335596" />
<rect x="270" y="756" width="27" height="27" fill="#335596" />
<rect x="405" y="756" width="27" height="27" fill="#2B2B2B" />
<rect x="432" y="756" width="27" height="27" fill="#5E5E57" />
<rect x="459" y="756" width="27" height="27" fill="#5E5E57" />
<rect x="486" y="756" width="27" height="27" fill="#5E5E57" />
<rect x="513" y="756" width="27" height="27" fill="#4D4D4F" />
<rect x="540" y="756" width="27" height="27" fill="#4D4D4F" />
<rect x="567" y="756" width="27" height="27" fill="#FFFFFF" />
<rect x="594" y="756" width="27" height="27" fill="#4D4D4F" />
<rect x="621" y="756" width="27" height="27" fill="#767670" />
<rect x="648" y="756" width="27" height="27" fill="#767670" />
<rect x="675" y="756" width="27" height="27" fill="#767670" />
<rect x="702" y="756" width="27" height="27" fill="#5E5E57" />
<rect x="729" y="756" width="27" height="27" fill="#5E5E57" />
<rect x="756" y="756" width="27" height="27" fill="#2B2B2B" />
<rect x="783" y="756" width="27" height="27" fill="#2B2B2B" />
<rect x="810" y="756" width="27" height="27" fill="#2B2B2B" />
<rect x="837" y="756" width="27" height="27" fill="#2B2B2B" />
<rect x="432" y="783" width="27" height="27" fill="#2B2B2B" />
<rect x="459" y="783" width="27" height="27" fill="#2B2B2B" />
<rect x="486" y="783" width="27" height="27" fill="#2B2B2B" />
<rect x="513" y="783" width="27" height="27" fill="#2B2B2B" />
<rect x="540" y="783" width="27" height="27" fill="#6EB3DC" />
<rect x="567" y="783" width="27" height="27" fill="#4D4D4F" />
<rect x="594" y="783" width="27" height="27" fill="#767670" />
<rect x="621" y="783" width="27" height="27" fill="#767670" />
<rect x="648" y="783" width="27" height="27" fill="#767670" />
<rect x="675" y="783" width="27" height="27" fill="#5E5E57" />
<rect x="702" y="783" width="27" height="27" fill="#5E5E57" />
<rect x="729" y="783" width="27" height="27" fill="#2B2B2B" />
<rect x="540" y="810" width="27" height="27" fill="#2B2B2B" />
<rect x="567" y="810" width="27" height="27" fill="#2B2B2B" />
<rect x="594" y="810" width="27" height="27" fill="#5E5E57" />
<rect x="621" y="810" width="27" height="27" fill="#5E5E57" />
<rect x="648" y="810" width="27" height="27" fill="#5E5E57" />
<rect x="675" y="810" width="27" height="27" fill="#5E5E57" />
<rect x="702" y="810" width="27" height="27" fill="#5E5E57" />
<rect x="729" y="810" width="27" height="27" fill="#2B2B2B" />
<rect x="594" y="837" width="27" height="27" fill="#2B2B2B" />
<rect x="621" y="837" width="27" height="27" fill="#FFFFFF" />
<rect x="648" y="837" width="27" height="27" fill="#4D4D4F" />
<rect x="675" y="837" width="27" height="27" fill="#BBBBB9" />
<rect x="702" y="837" width="27" height="27" fill="#2B2B2B" />
<rect x="621" y="864" width="27" height="27" fill="#2B2B2B" />
<rect x="648" y="864" width="27" height="27" fill="#2B2B2B" />
<rect x="675" y="864" width="27" height="27" fill="#2B2B2B" />
</svg>